{
    "asset" : {
        "generator" : "Khronos glTF Blender I/O v1.1.46",
        "version" : "2.0"
    },
    "scene" : 0,
    "scenes" : [
        {
            "name" : "Scene",
            "nodes" : [
                0
            ]
        }
    ],
    "nodes" : [
        {
            "mesh" : 0,
            "name" : "tree pack 006",
            "scale" : [
                0.009999999776482582,
                0.009999999776482582,
                0.009999999776482582
            ]
        }
    ],
    "materials" : [
        {
            "doubleSided" : true,
            "name" : "Blackness",
            "pbrMetallicRoughness" : {}
        }
    ],
    "meshes" : [
        {
            "name" : "tree pack 006",
            "primitives" : [
                {
                    "attributes" : {
                        "POSITION" : 0,
                        "NORMAL" : 1,
                        "TEXCOORD_0" : 2
                    },
                    "indices" : 3,
                    "material" : 0
                }
            ]
        }
    ],
    "accessors" : [
        {
            "bufferView" : 0,
            "componentType" : 5126,
            "count" : 42787,
            "max" : [
                25988.69921875,
                9416.5302734375,
                4279.5498046875
            ],
            "min" : [
                -2894.3701171875,
                -8.95361042022705,
                -4279.5400390625
            ],
            "type" : "VEC3"
        },
        {
            "bufferView" : 1,
            "componentType" : 5126,
            "count" : 42787,
            "type" : "VEC3"
        },
        {
            "bufferView" : 2,
            "componentType" : 5126,
            "count" : 42787,
            "type" : "VEC2"
        },
        {
            "bufferView" : 3,
            "componentType" : 5123,
            "count" : 113577,
            "type" : "SCALAR"
        }
    ],
    "bufferViews" : [
        {
            "buffer" : 0,
            "byteLength" : 513444,
            "byteOffset" : 0
        },
        {
            "buffer" : 0,
            "byteLength" : 513444,
            "byteOffset" : 513444
        },
        {
            "buffer" : 0,
            "byteLength" : 342296,
            "byteOffset" : 1026888
        },
        {
            "buffer" : 0,
            "byteLength" : 227154,
            "byteOffset" : 1369184
        }
    ],
    "buffers" : [
        {
            "byteLength" : 1596340,
            "uri" : "data:application/octet-stream;base64,"
        }
    ]
}
